# xmcd
#
# Track frame offsets:
#	150
#	14725
#	30910
#	48245
#
# Disc length: 837 seconds
#
# Revision: 0
# Processed by: cddbd v1.5.2PL0 Copyright (c) Steve Scherf et al.
# Submitted via: audiograbber 1.83.01
#
DISCID=26034304
DTITLE=Montgomery Gentry - Wanted
DYEAR=1998
DGENRE=Country
TTITLE0=Hillbilly Shoes
TTITLE1=Self-Made Man
TTITLE2=Tryin' To Survive
TTITLE3=I've Loved  A Lot More Than I've Hurt
EXTD=
EXTT0=
EXTT1=
EXTT2=
EXTT3=
PLAYORDER=
